<?xml version="1.0" encoding="utf-8"?>
<!-- Generator: Adobe Illustrator 23.0.3, SVG Export Plug-In . SVG Version: 6.00 Build 0)  -->
<svg version="1.1" id="Layer_1" xmlns="http://www.w3.org/2000/svg" xmlns:xlink="http://www.w3.org/1999/xlink" x="0px" y="0px"
	 viewBox="0 0 381.76 228.52" style="enable-background:new 0 0 381.76 228.52;" xml:space="preserve">
<style type="text/css">
	.st0{fill:#94B6B3;}
	.st1{clip-path:url(#SVGID_2_);}
	.st2{fill:#94D75B;}
	.st3{fill:#B0EB81;}
	.st4{fill:#71BE63;}
	.st5{fill:#43AB5F;}
	.st6{fill:#674447;}
	.st7{fill:#5B8E8A;}
	.st8{fill:#FF9F00;}
	.st9{fill:#FFE470;}
	.st10{fill:#FFD400;}
	.st11{fill:#FDBF00;}
	.st12{fill:none;stroke:#674447;stroke-width:3;stroke-miterlimit:10;}
</style>
<ellipse class="st0" cx="190.78" cy="114.49" rx="180.28" ry="102.84"/>
<g>
	<defs>
		<ellipse id="SVGID_1_" cx="190.78" cy="114.49" rx="180.28" ry="102.84"/>
	</defs>
	<clipPath id="SVGID_2_">
		<use xlink:href="#SVGID_1_"  style="overflow:visible;"/>
	</clipPath>
	<g class="st1">
		<g>
			<path class="st2" d="M83.53,257l174.61-93.52l-4.42-9.54c-42.28,0-115.65-42.98-249.02-27.75c0,46.98,17.22,89.91,45.63,122.93
				C68.18,253.38,83.53,257,83.53,257z"/>
		</g>
		<g>
			<path class="st3" d="M253.72,153.94c-38.77,0-103.72-36.11-217.08-30.36c100.78,0.09,162.59,45.2,194.24,45.2l8.84-3.3
				l14.26-10.97L253.72,153.94z"/>
		</g>
		<g>
			<path class="st4" d="M21.4,203.76C50.98,269.22,116.8,314.8,193.3,314.8c104.17,0,188.61-84.44,188.61-188.61
				c0-1.97-0.09-3.92-0.15-5.87c-116.63,0.53-169.52,82.49-360.37,82.49V203.76z"/>
		</g>
		<g>
			<path class="st5" d="M381.47,138.54c-82.89,0.41-201.73,115.1-317.73,124.5c33.79,32.03,79.33,51.76,129.57,51.76
				C293.32,314.8,375.1,236.94,381.47,138.54z"/>
		</g>
	</g>
</g>
<g>
	<path class="st6" d="M79.11,145.97c4.55,3.12,7.15,6.85,7.94,10.8c0.81,3.91-0.21,8.04-2.88,11.93c-6.27,9.13-15.24,9.22-23.13,3.8
		c-9.76-6.71-9.44-15.85-4.82-22.57c2.67-3.89,6.85-7.03,11.77-7.39c3.82-0.26,7.92,1.23,11.09,3.41L79.11,145.97z M73.75,154.07
		c-2.61-1.79-4.97,1.36-6.23,3.2c-1.21,1.77-3.35,5.17-0.75,6.96c2.54,1.75,5.08-1.38,6.3-3.15s3.29-5.22,0.71-6.99L73.75,154.07z"
		/>
	<path class="st6" d="M90.54,156.03c0.48-1.28,1.63-1.09,2.27-0.85c1.29,0.49,2.56,1.26,5.33,2.31c3.22,1.22,4.69,1.48,6.05,2.01
		c1.37,0.52,1.14,1.68,0.97,2.12c-0.21,0.55-0.32,0.63-1.28,1.31c-0.55,0.42-0.77,0.54-1.72,3.06l-3.77,9.96
		c-0.1,0.26-0.61,1.39-0.71,1.65c-0.51,1.35,0.08,2.41,1.45,2.93c1.25,0.47,2.63,0.62,3.17-0.8c0.1-0.26,0.44-1.5,0.52-1.72
		l3.9-10.28c0.95-2.52,0.91-2.74,0.74-3.43c-0.21-1.04-0.26-1.27-0.05-1.81c0.25-0.66,0.85-1.43,2.25-0.9
		c1.18,0.45,3.09,1.46,4.07,1.84c1.48,0.56,3.32,0.97,4.34,1.36c1.29,0.49,1.18,1.57,0.97,2.12c-0.21,0.55-0.3,0.68-1.24,1.32
		c-0.59,0.4-0.85,0.76-1.39,2.18l-0.88,2.33c-0.58,1.53-1.2,3.17-1.5,4.19c-0.17,0.56-1.83,5.73-2.17,6.64
		c-1.23,3.25-3.46,6.28-7.09,7.16c-3.35,0.82-6.78,0.14-10-1.08c-3.6-1.37-7.51-3.64-9.48-7.01c-1.61-2.74-1.34-6.18-0.28-8.99
		c0.19-0.51,1.03-2.36,1.29-2.93c0.64-1.47,1.28-3.14,2.07-5.22c0.37-0.98,1.37-3.61,2.15-6.02c0.31-0.93,0.21-1.25-0.01-2.05
		c-0.1-0.41-0.18-0.78,0.03-1.33L90.54,156.03z"/>
	<path class="st6" d="M132.41,192.68c-0.53,2.68-0.54,2.76-0.27,3.54c0.39,1.05,0.47,1.23,0.34,1.8c-0.1,0.46-0.59,1.5-1.98,1.19
		c-0.87-0.2-1.52-0.63-5.6-1.56c-3.99-0.91-5.08-0.88-6.03-1.1c-1.46-0.33-1.4-1.52-1.3-1.98c0.12-0.53,0.27-0.66,1.08-1.43
		c0.59-0.58,0.77-0.99,1.29-3.3l2.72-11.94c0.24-1.06,0.42-1.83-1.13-2.18c-1.78-0.41-2.62,0.72-3.69,0.48
		c-0.95-0.22-1.45-1.13-1.3-1.78c0.09-0.38,0.42-0.94,0.49-1.05c1.16-1.98,1.89-3.93,2.71-6.22c0.48-1.37,1.13-1.86,2.67-1.5
		c1.5,0.34,4.56,1.36,9.54,2.5c6.17,1.41,7.27,1.34,9.05,1.74c1.86,0.42,1.75,1.28,1.49,3.86c-0.12,1.05-0.29,2.73-0.32,4.49
		c0.02,0.08,0,1.84-0.06,2.11c-0.2,0.88-1,1.29-1.79,1.11c-0.95-0.22-1.72-1.59-3.62-2.02c-1.15-0.26-1.35,0.25-1.59,1.32
		L132.41,192.68z"/>
	<path class="st6" d="M154.6,197.38c-0.16,1.32,0.02,1.85,0.25,2.31c0.49,1,0.55,1.17,0.48,1.75c-0.07,0.54-0.47,1.55-1.76,1.4
		c-0.81-0.1-2.87-0.62-5.69-0.96c-3.66-0.44-4.91-0.32-5.99-0.45c-1.25-0.15-1.49-1.2-1.42-1.78c0.07-0.58,0.21-0.72,0.93-1.58
		c0.53-0.64,0.66-1.06,0.95-3.42l2.08-17.23c0.33-2.71,0.25-2.76-0.11-3.51c-0.49-1-0.59-1.17-0.52-1.75c0.14-1.16,1-1.53,2.01-1.41
		c0.93,0.11,1.86,0.46,11.89,1.71c4.79,0.58,7.97,0.69,9.54,0.88c1.25,0.15,1.65,0.87,1.67,1.7c0.16,2.69,0.17,3.36,0.65,5.81
		c0.4,2.13,0.4,2.13,0.35,2.52c-0.07,0.62-0.73,1.29-1.65,1.17c-1.41-0.17-1.95-1.42-8.32-2.18l-2.29-0.28
		c-0.6-0.07-1.7-0.17-1.86,1.23l-0.14,1.12c-0.16,1.35,0.22,1.56,1.83,1.75l3.02,0.37c1.29,0.16,2.12,0.02,3.38-0.26
		c1.01-0.23,1.38-0.26,1.74-0.22c0.89,0.11,1.27,0.63,1.16,1.51c-0.13,1.04-0.37,2.04-0.56,3.62c-0.3,2.52-0.32,3.69-0.44,4.66
		c-0.04,0.31-0.19,1.59-1.64,1.41c-0.48-0.06-0.6-0.11-1.67-0.75c-0.61-0.35-1.68-0.67-3.08-0.84l-2.42-0.29
		c-1.25-0.15-2.12-0.02-2.28,1.29L154.6,197.38z"/>
	<path class="st6" d="M185.53,203.49c-0.02,0.47-0.35,1.55-1.72,1.49c-0.69-0.03-1.81-0.35-5.78-0.5c-4.09-0.16-5.16,0.07-6.13,0.03
		c-1.54-0.06-1.65-1.32-1.64-1.71c0.02-0.54,0.15-0.7,0.79-1.61c0.47-0.68,0.57-1.11,0.67-3.49l0.69-17.34
		c0.11-2.77,0.03-2.77-0.39-3.49c-0.57-0.96-0.69-1.12-0.66-1.71c0.06-1.44,1.24-1.59,1.89-1.57c1.26,0.05,3.11,0.4,5.58,0.5
		c3.65,0.15,4.83-0.08,6.21-0.02c1.5,0.06,1.61,1.31,1.6,1.7c-0.02,0.58-0.15,0.74-0.8,1.65c-0.39,0.57-0.56,0.76-0.67,3.45
		l-0.69,17.34c-0.11,2.69,0,2.97,0.39,3.53c0.57,0.88,0.69,1.08,0.66,1.71L185.53,203.49z"/>
	<path class="st6" d="M207.01,197.88c0.16,2.73,0.17,2.8,0.63,3.49c0.64,0.92,0.76,1.07,0.78,1.65c0.01,0.47-0.19,1.61-1.61,1.65
		c-0.89,0.03-1.63-0.22-5.81-0.1c-4.09,0.13-5.14,0.43-6.11,0.46c-1.5,0.05-1.74-1.12-1.75-1.58c-0.02-0.55,0.1-0.71,0.68-1.66
		c0.42-0.71,0.49-1.15,0.42-3.52l-0.37-12.24c-0.03-1.09-0.06-1.87-1.64-1.82c-1.82,0.05-2.35,1.36-3.45,1.39
		c-0.97,0.03-1.69-0.73-1.71-1.39c-0.01-0.39,0.17-1.02,0.21-1.14c0.62-2.2,0.84-4.28,1.05-6.71c0.12-1.45,0.63-2.09,2.21-2.14
		c1.54-0.05,4.75,0.17,9.86,0.01c6.32-0.19,7.37-0.54,9.19-0.59c1.91-0.06,2.01,0.8,2.42,3.36c0.15,1.05,0.41,2.72,0.82,4.42
		c0.04,0.08,0.46,1.78,0.47,2.05c0.03,0.9-0.64,1.5-1.46,1.53c-0.97,0.03-2.06-1.11-4.01-1.05c-1.18,0.04-1.24,0.58-1.21,1.68
		L207.01,197.88z"/>
	<path class="st6" d="M235.27,195.09c0.42,2.7,0.43,2.78,0.96,3.42c0.72,0.85,0.86,0.99,0.93,1.57c0.06,0.46-0.04,1.62-1.45,1.79
		c-0.89,0.11-1.64-0.07-5.79,0.45c-4.07,0.51-5.08,0.91-6.04,1.03c-1.49,0.19-1.84-0.95-1.89-1.41c-0.07-0.54,0.03-0.71,0.52-1.72
		c0.36-0.75,0.38-1.19,0.09-3.55l-1.51-12.15c-0.14-1.08-0.23-1.86-1.8-1.66c-1.81,0.23-2.22,1.57-3.3,1.71
		c-0.97,0.12-1.75-0.57-1.83-1.23c-0.05-0.39,0.08-1.03,0.1-1.15c0.41-2.25,0.44-4.34,0.42-6.77c-0.02-1.45,0.43-2.14,2-2.34
		c1.53-0.19,4.75-0.28,9.82-0.91c6.28-0.78,7.29-1.22,9.1-1.44c1.89-0.24,2.08,0.61,2.72,3.12c0.25,1.03,0.66,2.67,1.23,4.33
		c0.05,0.07,0.62,1.73,0.66,2c0.11,0.89-0.5,1.56-1.31,1.66c-0.97,0.12-2.16-0.91-4.09-0.67c-1.17,0.15-1.18,0.7-1.05,1.78
		L235.27,195.09z"/>
	<path class="st6" d="M256.26,187.78c0.2,0.83,0.69,0.96,1.3,0.9c0.78-0.06,3.54-0.72,4.41-0.92c3.75-0.89,5.9-2.36,6.16-2.5
		c0.97-0.67,1.08-0.74,1.47-0.83c0.71-0.17,1.46,0.18,1.63,0.9c0.11,0.46,0.07,0.83-0.05,1.54c-0.24,1.46-0.13,4.92-0.03,5.86
		c0.04,0.35,0.01,0.76-0.08,1.06c-0.15,0.44-0.5,0.88-1.37,1.08c-1.97,0.47-4.44,0.77-16.68,3.67c-3.16,0.75-4.99,1.46-5.7,1.63
		c-1.38,0.33-1.89-0.76-2-1.21c-0.13-0.53-0.04-0.71,0.33-1.76c0.27-0.79,0.25-1.22-0.29-3.54l-3.99-16.89
		c-0.64-2.69-0.72-2.68-1.31-3.26c-0.76-0.74-0.96-0.89-1.1-1.46c-0.15-0.65-0.1-1.66,1.36-2.01c0.95-0.22,2.79-0.38,8.87-1.82
		c10.38-2.46,11.82-3.08,12.92-3.34c1.54-0.36,1.81,0.25,2.77,2.39c0.52,1.16,0.97,1.97,1.24,2.43c0.83,1.41,0.96,1.58,1.02,1.84
		c0.17,0.72-0.46,1.23-1.13,1.39c-1.18,0.28-2.89-0.4-8.77,0.99l-3.12,0.74c-0.88,0.33-0.69,1.13-0.6,1.5l0.3,1.25
		c0.26,1.1,0.97,0.93,2.55,0.56l3-0.71c1.74-0.41,2.34-0.67,2.92-1.05c0.54-0.37,1.11-0.78,1.74-0.93c1.03-0.24,1.54,0.36,1.73,1.15
		c0.12,0.49,0.47,2.69,0.58,3.15c0.08,0.34,0.61,1.86,0.69,2.2c0.11,0.46,0.02,1.48-1.09,1.74c-0.47,0.11-0.65,0.07-2.06-0.07
		c-0.65-0.09-1.85,0.12-2.95,0.38l-3.36,0.79c-1.42,0.34-1.91,0.57-1.61,1.82L256.26,187.78z"/>
	<path class="st6" d="M288.16,182.05c0.76,1.63,0.85,1.84,1.53,2.32c0.92,0.63,1.05,0.75,1.28,1.29c0.19,0.47,0.39,1.57-0.89,2.1
		c-0.6,0.25-2.84,0.88-5.35,1.92c-1.91,0.79-3.49,1.74-5.03,2.38c-1.39,0.57-2.04-0.47-2.2-0.86c-0.21-0.5-0.16-0.7,0.05-1.79
		c0.14-0.82,0.05-1.25-0.85-3.44l-6.63-16.04c-1-2.41-1.13-2.53-1.81-3.01c-0.92-0.63-1.09-0.73-1.32-1.27
		c-0.57-1.37,0.5-1.98,1.06-2.21c1.12-0.46,2.92-0.91,5.16-1.84c2.29-0.95,4.47-2.14,6.75-3.09c2.59-1.07,6.3-2.39,8.97-2.61
		c4.37-0.37,8.49,1.85,10.31,6.25c1.4,3.39,0.71,5.95-0.3,7.76c-0.15,0.27-0.62,1.14-0.56,1.29c0.07,0.18,0.18,0.22,1.31,0.73
		c2.63,1.15,4.43,3.06,5.5,4.18c0.84,0.88,1.19,1.07,1.91,1.53c0.48,0.31,0.68,0.48,0.9,1.02c0.51,1.23-0.36,1.88-1.52,2.36
		c-0.86,0.36-3.7,1.24-5.5,1.98c-2.74,1.13-3.53,1.76-4.21,2.04c-0.49,0.2-1.49,0.32-1.97-0.83c-0.13-0.32-0.37-1.32-0.51-1.65
		c-0.42-1.01-3.07-3.08-5.05-3.94c-0.75-0.32-1.42-0.47-1.8-0.31c-0.6,0.25-0.5,0.71-0.35,1.07L288.16,182.05z M283.71,171.27
		c0.57,1.37,1.39,1.03,2.14,0.72c1.99-0.82,3.55-2.23,2.64-4.43c-1.21-2.92-4.09-1.73-4.73-1.46c-1.46,0.6-1.8,0.96-1.35,2.04
		L283.71,171.27z"/>
	<path class="st6" d="M300.55,160.44c-4.35-5.85-1.22-12.03,4.31-16.14c2.67-1.99,6.82-3.67,7.25-3.98
		c0.42-0.32,0.47-0.93,1.12-1.42c0.85-0.63,2.05-0.7,2.59,0.02c0.14,0.19,0.58,0.98,1.04,1.61c1.23,1.66,3.88,3.38,4.16,3.76
		c0.16,0.22,0.55,1.15-0.26,1.75c-0.94,0.7-4.91,1.28-7.45,3.17c-0.98,0.73-1.42,1.69-0.68,2.69c0.61,0.81,1.46,1.15,3.92,0.04
		c3.72-1.65,8.64-3.81,12.51,1.38c4.35,5.85,0.83,12.32-4.61,16.36c-2.77,2.06-8.3,4.48-8.4,4.55c-0.55,0.41-0.46,1.22-1.37,1.89
		c-1.56,1.16-2.34,0.19-3.39-1.22c-0.88-1.19-2.17-2.51-3.91-3.75c-0.27-0.23-0.75-0.61-0.96-0.89c-0.44-0.59-0.32-1.51,0.27-1.95
		c0.23-0.17,0.48-0.31,0.74-0.36c4.42-0.86,6.34-1.12,8.23-2.53c0.98-0.73,1.34-1.73,0.62-2.7c-0.77-1.03-1.99-0.9-4.28,0.03
		c-4.16,1.68-8.26,2.01-11.45-2.27L300.55,160.44z"/>
</g>
<g>
	<path class="st6" d="M68.89,62.19c-1.94,1.24-2.23,0.78-3.04-0.49c-0.71-1.11-1.69-1.58-2.96-0.77c-2.08,1.33-0.91,3.74-0.14,4.95
		c2.05,3.21,4.46,2.58,7.34,0.74c2.21-1.41,4.87-4.25,5.47-4.63c0.46-0.29,1.18-0.3,1.57,0.32c0.34,0.54,1.06,3.27,1.25,3.8
		s1.18,2.74,1.26,3.22c0.3,1.78-4.63,5.35-5.95,6.19c-3.64,2.32-7.19,3.42-10.45,2.95c-3.26-0.46-6.2-2.46-8.66-6.31
		c-2.22-3.48-3.24-7.15-1.98-10.81c1.33-3.92,4.32-6.37,6.18-7.55c2.56-1.63,5.51-2.53,7.13-2.85c2.15-0.38,2.86-0.16,3.38,0.65
		c0.15,0.24,0.87,1.61,1.44,2.5c0.9,1.4,2.08,2.66,2.65,3.55c0.76,1.19-0.1,1.74-1.24,2.46L68.89,62.19z"/>
	<path class="st6" d="M89.84,60.98c-0.71,0.3-1.5,0.8-1.31,1.59c0.04,0.19,0.09,0.38,0.14,0.5c0.15,0.35,0.72,0.74,1.03,0.96
		c0.25,0.17,0.42,0.42,0.55,0.74c0.27,0.65,0.11,1.41-0.51,1.67c-0.59,0.25-1.77,0.5-3.3,1.14c-2.18,0.91-3.33,1.64-4.01,1.92
		c-1.15,0.48-1.67-0.51-1.76-0.72c-0.21-0.5-0.15-0.7,0.18-1.88c0.2-0.6,0.07-1.24-0.32-3.58c-0.86-5.19-2.12-18.4-0.65-20.09
		c0.14-0.16,0.35-0.32,0.62-0.44c0.56-0.23,1.53-0.4,4.81-1.77c2.12-0.89,3.36-1.65,4.04-1.93c0.53-0.22,1.13-0.37,2.97,1.39
		c4.43,4.21,8.64,9.63,12.26,14.46c0.55,0.74,0.84,1.17,1.82,1.77c0.66,0.42,0.79,0.64,0.91,0.94c0.23,0.56,0.27,1.31-0.64,1.69
		c-0.88,0.37-2.33,0.73-5.01,1.86c-2.63,1.1-3.31,1.63-3.98,1.91c-1.24,0.52-1.79-0.64-1.85-0.78c-0.14-0.32-0.15-0.6-0.05-1.02
		c0.12-0.54,0.18-0.81-0.02-1.28c-0.54-1.3-1.69-0.82-2.55-0.46L89.84,60.98z M90.03,53.82c0.53-0.22,1.14-0.58,0.82-1.35
		c-0.26-0.62-1.15-1.91-2.97-3.86c-0.74-0.77-1.02-0.79-1.23-0.7c-0.41,0.17-0.4,0.86-0.4,1.87c0.02,1.69,0.22,3.76,0.51,4.44
		c0.35,0.83,1.08,0.52,1.7,0.26L90.03,53.82z"/>
	<path class="st6" d="M117.24,55.14c0.11,0.43,0.13,1.29-1.05,1.59c-1.02,0.26-2.1,0.3-3.12,0.57c-1.83,0.47-2.83,0.95-3.45,1.11
		c-0.74,0.19-1.38-0.24-1.57-0.99c-0.11-0.43-0.06-0.51,0.23-1.44c0.16-0.54,0.23-0.78-0.31-2.89l-3.52-13.8
		c-0.53-2.08-0.62-2.15-1.11-2.66c-0.66-0.66-0.78-0.73-0.9-1.19c-0.11-0.43-0.15-1.35,1.09-1.67c1.67-0.43,3.37-0.63,5.04-1.06
		c1.21-0.31,2.73-0.93,3.26-1.06c0.65-0.17,1.31-0.04,2.37,1.28c1.33,1.61,2.68,3.25,3.99,4.89c0.52,0.63,0.83,0.78,1.14,0.7
		c0.16-0.04,0.37-0.1,0.54-1.13c0.39-2.21,0.79-4.43,1.15-6.63c0.25-1.35,0.83-1.66,1.33-1.79c0.96-0.25,2.6-0.43,3.81-0.74
		c1.39-0.36,2.76-0.94,4.16-1.29c0.9-0.23,1.45,0.39,1.59,0.95c0.13,0.5,0.06,0.64-0.22,1.48c-0.21,0.61-0.17,0.9,0.34,2.89
		l3.52,13.8c0.54,2.11,0.59,2.19,1.11,2.69c0.65,0.63,0.74,0.7,0.86,1.17c0.18,0.71-0.1,1.41-0.94,1.63
		c-0.71,0.18-2.07,0.3-4.52,0.92c-2.29,0.58-3.42,1.1-3.91,1.23c-0.96,0.25-1.45-0.52-1.6-1.08c-0.12-0.47-0.07-0.54,0.19-1.44
		c0.16-0.54,0.23-0.79-0.31-2.89l-0.85-3.35c-0.34-1.33-0.39-1.78-0.48-2.12c-0.06-0.25-0.24-0.3-0.4-0.26
		c-0.4,0.1-0.51,0.72-0.62,1.31l-1.24,6.92c-0.21,1.24-0.69,1.7-1.34,1.86c-0.77,0.2-1.33-0.16-2.01-1.01l-4.55-5.81
		c-0.44-0.55-0.69-0.49-0.84-0.45c-0.25,0.06-0.43,0.24-0.36,0.52c0.05,0.19,0.22,0.47,0.59,1.93l0.87,3.41
		c0.55,2.14,0.72,2.29,1.11,2.69c0.65,0.63,0.77,0.69,0.9,1.19L117.24,55.14z"/>
	<path class="st6" d="M149.55,45.44c0.12,0.86,0.47,1.26,0.63,1.5c0.61,0.69,0.69,0.81,0.76,1.25c0.04,0.25,0.15,1.34-1.11,1.51
		c-0.7,0.1-2.09,0.06-4.62,0.42c-2.34,0.33-4.09,0.79-4.69,0.88c-1.27,0.18-1.48-0.86-1.52-1.15c-0.06-0.44,0.02-0.58,0.38-1.41
		c0.27-0.62,0.28-0.98,0.02-2.91l-1.96-14.1c-0.38-2.24-0.38-2.24-0.8-2.76c-0.58-0.69-0.69-0.81-0.76-1.25
		c-0.19-1.36,0.92-1.52,1.24-1.56c1.17-0.16,2.63-0.14,4.18-0.36c2.22-0.31,4.37-0.83,6.84-1.18c9.03-1.26,12.28,3.07,12.95,7.89
		c0.71,5.1-1.71,10.22-8.71,11.2c-0.7,0.07-1.4,0.13-2.13,0.23c-0.79,0.11-0.87,0.48-0.77,1.17L149.55,45.44z M147.51,36.16
		c0.05,0.38,0.12,0.89,1.33,0.72c0.79-0.11,3.33-0.46,2.93-3.28c-0.37-2.63-2.68-2.31-3.53-2.19c-1.3,0.18-1.32,0.47-1.2,1.36
		L147.51,36.16z"/>
	<path class="st6" d="M192.71,33.48c-2.3,0.02-2.31-0.52-2.32-2.02c-0.01-1.31-0.6-2.23-2.1-2.22c-2.46,0.02-2.76,2.68-2.74,4.12
		c0.04,3.81,2.41,4.55,5.83,4.52c2.62-0.03,6.39-1.02,7.09-1.03c0.54-0.01,1.16,0.37,1.16,1.11c0.01,0.64-0.83,3.34-0.95,3.88
		s-0.45,2.95-0.64,3.4c-0.69,1.67-6.76,2.08-8.33,2.1c-4.32,0.04-7.91-0.91-10.43-3.03c-2.52-2.12-3.96-5.37-4-9.94
		c-0.04-4.13,1.04-7.79,4.06-10.22c3.2-2.62,7.04-3.11,9.24-3.13c3.04-0.03,6.02,0.77,7.56,1.36c2.02,0.81,2.51,1.38,2.52,2.34
		c0,0.29-0.11,1.82-0.1,2.88c0.02,1.66,0.35,3.36,0.36,4.41c0.01,1.41-1.01,1.42-2.35,1.43L192.71,33.48z"/>
	<path class="st6" d="M215.55,21.96c4.33,0.34,7.58,1.91,9.66,4.39c2.09,2.44,3.01,5.79,2.71,9.65
		c-0.71,9.06-6.81,12.82-14.33,12.23c-9.31-0.73-12.67-7.35-12.15-14.02c0.3-3.86,1.93-7.81,5.15-10.09
		c2.51-1.76,5.9-2.39,8.92-2.16L215.55,21.96z M215.05,29.92c-2.49-0.2-2.87,3.02-3.01,4.84c-0.14,1.75-0.27,5.05,2.22,5.25
		c2.42,0.19,2.94-3.08,3.07-4.83c0.14-1.75,0.2-5.06-2.25-5.25L215.05,29.92z"/>
	<path class="st6" d="M231.09,32.02c1-5.9,6.25-7.57,11.61-6.65c2.58,0.44,5.8,1.93,6.21,2c0.41,0.07,0.79-0.25,1.42-0.15
		c0.82,0.14,1.52,0.81,1.39,1.54c-0.03,0.19-0.25,0.9-0.36,1.53c-0.28,1.67,0.16,4.21,0.09,4.59c-0.04,0.22-0.36,0.98-1.15,0.84
		c-0.91-0.16-3.39-2.17-5.85-2.59c-0.95-0.16-1.74,0.13-1.91,1.13c-0.14,0.82,0.13,1.52,2.1,2.34c2.97,1.25,6.87,2.92,5.97,8.16
		c-1,5.9-6.63,7.5-11.89,6.61c-2.68-0.46-7.06-2.34-7.16-2.36c-0.54-0.09-0.95,0.42-1.83,0.27c-1.51-0.26-1.37-1.27-1.13-2.69
		c0.2-1.2,0.27-2.71,0.04-4.44c-0.01-0.29-0.06-0.79-0.01-1.07c0.1-0.6,0.7-1.05,1.27-0.95c0.22,0.04,0.44,0.11,0.61,0.23
		c2.88,2.11,4.08,3.1,5.91,3.41c0.95,0.16,1.72-0.19,1.89-1.17c0.18-1.04-0.56-1.69-2.33-2.51c-3.22-1.49-5.63-3.72-4.89-8.04
		L231.09,32.02z"/>
	<path class="st6" d="M265.1,51.05c-0.5,2.18-0.51,2.25-0.32,2.89c0.27,0.86,0.33,1.01,0.21,1.48c-0.1,0.37-0.51,1.22-1.6,0.94
		c-0.68-0.18-1.18-0.54-4.37-1.36c-3.13-0.81-3.99-0.8-4.73-0.99c-1.15-0.3-1.06-1.27-0.96-1.64c0.11-0.43,0.24-0.53,0.89-1.16
		c0.49-0.47,0.64-0.79,1.12-2.68l2.52-9.73c0.22-0.87,0.38-1.49-0.82-1.8c-1.39-0.36-2.09,0.55-2.93,0.33
		c-0.74-0.19-1.11-0.95-0.97-1.47c0.08-0.31,0.36-0.77,0.42-0.85c0.97-1.6,1.62-3.18,2.33-5.05c0.42-1.11,0.95-1.51,2.16-1.19
		c1.18,0.3,3.56,1.19,7.46,2.19c4.83,1.25,5.7,1.21,7.09,1.57c1.46,0.38,1.34,1.07,1.06,3.18c-0.12,0.86-0.31,2.23-0.39,3.67
		c0.01,0.07-0.06,1.5-0.12,1.72c-0.18,0.71-0.83,1.04-1.45,0.88c-0.74-0.19-1.31-1.33-2.79-1.71c-0.9-0.23-1.07,0.19-1.3,1.05
		L265.1,51.05z"/>
	<path class="st6" d="M278.89,56.08c-0.72-0.27-1.64-0.44-2.04,0.26c-0.1,0.17-0.19,0.34-0.24,0.46c-0.13,0.36,0.02,1.03,0.09,1.4
		c0.06,0.3,0.02,0.59-0.1,0.92c-0.25,0.66-0.89,1.1-1.52,0.87c-0.6-0.22-1.63-0.85-3.19-1.43c-2.22-0.83-3.55-1.09-4.24-1.34
		c-1.17-0.44-0.87-1.52-0.79-1.73c0.19-0.51,0.37-0.62,1.42-1.25c0.56-0.3,0.9-0.86,2.22-2.83c2.93-4.37,11.05-14.87,13.28-15.09
		c0.21-0.02,0.48,0.01,0.75,0.11c0.57,0.21,1.39,0.76,4.71,2c2.16,0.81,3.58,1.1,4.27,1.36c0.54,0.2,1.07,0.5,1.21,3.05
		c0.35,6.11-0.29,12.94-0.97,18.94c-0.1,0.92-0.19,1.43,0.11,2.54c0.2,0.76,0.14,1.01,0.02,1.31c-0.21,0.57-0.7,1.14-1.63,0.79
		c-0.9-0.34-2.2-1.06-4.92-2.08c-2.67-1-3.52-1.08-4.21-1.33c-1.26-0.47-0.87-1.69-0.81-1.84c0.12-0.33,0.3-0.54,0.67-0.78
		c0.46-0.31,0.68-0.46,0.86-0.94c0.49-1.32-0.68-1.76-1.54-2.08L278.89,56.08z M283.93,50.99c0.54,0.2,1.23,0.36,1.52-0.42
		c0.24-0.63,0.47-2.18,0.48-4.84c-0.01-1.06-0.21-1.27-0.42-1.35c-0.42-0.16-0.88,0.35-1.57,1.09c-1.15,1.25-2.41,2.89-2.67,3.58
		c-0.31,0.84,0.44,1.12,1.06,1.35L283.93,50.99z"/>
	<path class="st6" d="M305.71,68.25c-0.68,1.3-0.78,1.47-0.77,2.15c0.03,0.91,0.02,1.05-0.22,1.46c-0.21,0.36-0.83,1.04-1.77,0.49
		c-0.44-0.26-1.91-1.37-3.76-2.45c-1.41-0.82-2.77-1.35-3.9-2.01c-1.02-0.6-0.66-1.53-0.49-1.84c0.23-0.39,0.37-0.45,1.17-0.87
		c0.59-0.32,0.83-0.59,1.81-2.28l7.16-12.31c1.08-1.85,1.09-2,1.07-2.67c-0.03-0.91-0.05-1.06,0.19-1.48
		c0.61-1.05,1.5-0.68,1.92-0.44c0.83,0.48,1.96,1.4,3.62,2.36c1.69,0.98,3.49,1.77,5.17,2.75c1.91,1.11,4.51,2.81,5.91,4.4
		c2.3,2.6,2.82,6.34,0.86,9.72c-1.51,2.6-3.49,3.45-5.12,3.72c-0.25,0.04-1.03,0.18-1.09,0.29c-0.08,0.14-0.06,0.23,0.15,1.2
		c0.5,2.25,0.13,4.37-0.08,5.62c-0.16,0.98-0.13,1.3-0.08,1.99c0.03,0.46,0.01,0.67-0.23,1.09c-0.55,0.94-1.38,0.72-2.24,0.22
		c-0.64-0.37-2.54-1.74-3.87-2.51c-2.02-1.17-2.79-1.37-3.29-1.66c-0.36-0.21-0.91-0.79-0.4-1.67c0.15-0.25,0.67-0.9,0.82-1.15
		c0.45-0.77,0.52-3.51,0.14-5.21c-0.15-0.64-0.37-1.14-0.65-1.3c-0.44-0.26-0.69,0.04-0.85,0.32L305.71,68.25z M310.52,59.98
		c-0.61,1.05,0,1.4,0.55,1.73c1.47,0.85,3.11,1.14,4.09-0.54c1.3-2.24-0.83-3.48-1.3-3.75c-1.08-0.63-1.46-0.67-1.95,0.16
		L310.52,59.98z"/>
</g>
<g>
	<g>
		<g>
			<g>
				<path class="st6" d="M292.86,139.56c-1.28,0-2.32-1.04-2.32-2.32v-24.94c0-1.28,1.04-2.32,2.32-2.32c1.28,0,2.32,1.04,2.32,2.32
					v24.94C295.18,138.52,294.14,139.56,292.86,139.56z"/>
			</g>
		</g>
		<g>
			<g>
				<path class="st5" d="M307.45,110.18c0,8.06-6.53,14.59-14.59,14.59c-8.06,0-14.59-6.53-14.59-14.59s6.53-32.83,14.59-32.83
					C300.92,77.35,307.45,102.12,307.45,110.18z"/>
			</g>
		</g>
		<g>
			<g>
				<path class="st4" d="M292.86,77.35c-2.02,0-3.95,1.56-5.7,4.03h0c7.38,0,13.36,22.67,13.36,30.05c0,6.42-4.53,11.77-10.56,13.05
					c0.94,0.19,1.91,0.29,2.91,0.29c8.06,0,14.59-6.53,14.59-14.59C307.45,102.12,300.92,77.35,292.86,77.35z"/>
			</g>
		</g>
	</g>
	<g>
		<g>
			<g>
				<path class="st6" d="M259.17,154.37c-1.45,0-2.63-1.18-2.63-2.63v-28.3c0-1.45,1.18-2.63,2.63-2.63s2.63,1.18,2.63,2.63v28.3
					C261.8,153.19,260.62,154.37,259.17,154.37z"/>
			</g>
		</g>
		<g>
			<g>
				<path class="st5" d="M275.73,121.04c0,9.15-7.41,16.56-16.56,16.56c-9.15,0-16.56-7.41-16.56-16.56s7.41-37.26,16.56-37.26
					C268.31,83.78,275.73,111.89,275.73,121.04z"/>
			</g>
		</g>
		<g>
			<g>
				<path class="st4" d="M259.17,83.78c-2.3,0-4.48,1.77-6.47,4.57h0c8.37,0,15.16,25.73,15.16,34.1c0,7.28-5.14,13.35-11.98,14.81
					c1.07,0.22,2.17,0.33,3.3,0.33c9.15,0,16.56-7.41,16.56-16.56C275.73,111.89,268.31,83.78,259.17,83.78z"/>
			</g>
		</g>
	</g>
</g>
<path class="st7" d="M130.75,93.08c-0.76-0.99-2.04-1.46-3.21-1.11c-0.76,0.23-1.57,0.35-2.45,0.35h-0.23
	c-4.66-0.12-8.51-4.16-8.51-8.94c0-3.61,2.27-6.88,5.65-8.16c1.17-0.47,1.92-1.57,1.92-2.8c-0.06-1.22-0.82-2.33-1.98-2.74
	c-1.81-0.58-3.67-0.87-5.6-0.87c-9.62,0-17.68,8.06-17.68,17.68c0,9.62,8.06,17.48,17.68,17.48c3.03,0,5.95-0.76,8.51-2.21
	c2.33-1.22,4.31-3.09,5.89-5.3C131.45,95.41,131.45,94.07,130.75,93.08z"/>
<g>
	<path class="st8" d="M225.68,145.8l-29.34-46.82c-0.52-0.82-1.46-1.34-2.45-1.34h-40.8l10.07,29.75l17.96,22.9h42.1
		c1.05,0,2.04-0.58,2.56-1.51C226.32,147.84,226.27,146.73,225.68,145.8z"/>
	<path class="st9" d="M181.13,150.29h-25.12l-2.91-5.83l-2.91,5.83h-20.59c-0.99,0-1.92-0.52-2.51-1.4
		c-0.53-0.82-0.53-1.92-0.12-2.8l23.22-46.24h5.83L181.13,150.29z"/>
	<path class="st10" d="M181.13,150.29h-25.12l-2.91-5.83V99.85h2.91L181.13,150.29z"/>
	<path class="st11" d="M156.01,99.85v50.43h-5.83V99.85l0.29-0.58c0.52-1.05,1.57-1.63,2.62-1.63s2.1,0.58,2.62,1.63L156.01,99.85z"
		/>
</g>
<path class="st10" d="M153.99,55.18l2,4.1c0.14,0.29,0.41,0.48,0.72,0.53l4.51,0.67c0.79,0.12,1.1,1.09,0.53,1.65l-3.28,3.17
	c-0.23,0.22-0.33,0.54-0.28,0.85l0.75,4.5c0.13,0.79-0.7,1.39-1.4,1.01l-4.03-2.14c-0.28-0.15-0.62-0.15-0.9,0l-4.05,2.11
	c-0.71,0.37-1.53-0.23-1.4-1.02l0.79-4.5c0.05-0.31-0.05-0.63-0.27-0.85l-3.26-3.2c-0.57-0.56-0.25-1.53,0.54-1.64l4.52-0.64
	c0.31-0.04,0.59-0.24,0.73-0.52l2.03-4.08C152.61,54.46,153.64,54.47,153.99,55.18z"/>
<path class="st10" d="M176.96,63.76l2,4.1c0.14,0.29,0.41,0.48,0.72,0.53l4.51,0.67c0.79,0.12,1.1,1.09,0.53,1.65l-3.28,3.17
	c-0.23,0.22-0.33,0.54-0.28,0.85l0.75,4.5c0.13,0.79-0.7,1.39-1.4,1.01l-4.03-2.14c-0.28-0.15-0.62-0.15-0.9,0l-4.05,2.11
	c-0.71,0.37-1.53-0.23-1.4-1.02l0.79-4.5c0.05-0.31-0.05-0.63-0.27-0.85l-3.26-3.2c-0.57-0.56-0.25-1.53,0.54-1.64l4.52-0.64
	c0.31-0.04,0.59-0.24,0.73-0.52l2.03-4.08C175.59,63.03,176.61,63.04,176.96,63.76z"/>
<path class="st10" d="M81.2,91.82l2,4.1c0.14,0.29,0.41,0.48,0.72,0.53l4.51,0.67c0.79,0.12,1.1,1.09,0.53,1.65l-3.28,3.17
	c-0.23,0.22-0.33,0.54-0.28,0.85l0.75,4.5c0.13,0.79-0.7,1.39-1.4,1.01l-4.03-2.14c-0.28-0.15-0.62-0.15-0.9,0l-4.05,2.11
	c-0.71,0.37-1.53-0.23-1.4-1.02l0.79-4.5c0.05-0.31-0.05-0.63-0.27-0.85l-3.26-3.2c-0.57-0.56-0.25-1.53,0.54-1.64l4.52-0.64
	c0.31-0.04,0.59-0.24,0.73-0.52l2.03-4.08C79.83,91.1,80.85,91.1,81.2,91.82z"/>
<ellipse class="st12" cx="190.78" cy="114.49" rx="180.28" ry="102.84"/>
</svg>
